<svg xmlns="http://www.w3.org/2000/svg" viewBox="0 0 511.458 511.458"><path d="M153.322 285.629c0 14.1 11.5 25.6 25.6 25.6 14.1 0 25.6-11.5 25.6-25.6 0-14.1-11.5-25.6-25.6-25.6-14.1 0-25.6 11.5-25.6 25.6zm42.6 0c.1 4.7-3.7 8.5-8.5 8.5h-17c-4.7 0-8.5-3.8-8.5-8.5s3.8-8.5 8.5-8.5h17c4.7 0 8.5 3.8 8.5 8.5zm-110.9-128h-41.3l-40.6 235.5c-2.7 16-3.7 31.8-2.8 47.2 1 16.6 2.8 29.4 5.7 38.7l5.8-4.1c.1-.2 73.2-66.9 73.2-308.8v-8.5z"/><path d="M407.422 174.629v-2.2c0-2.1-.1-4.2-.1-6.3l-.5-8.5c-11.2-57.1-52.2-145.1-142.6-145.1s-131.4 88-142.6 145.1h-19.5v8.5c0 251.4-76.5 319.5-79.8 322.2l-8.2 5.9c3.2 3.1 6.9 4.7 11.2 4.7h460.8c4.6 0 8.5-1.7 11.8-5.3l-8.8-5.3c-3.2-2.7-80-69.4-81.7-313.7zm-185.9 110.9c.1 23.6-19.1 42.7-42.6 42.7s-42.7-19.1-42.7-42.7c0-20.6 14.7-37.8 34.1-41.8v-35h-6.9c-10.3 0-18.7-8.4-18.7-18.7v-15.5h17.1v15.5c0 .9.7 1.6 1.6 1.6h31c.9 0 1.6-.7 1.6-1.6v-32.5h-21.6c3-11.7 7.8-26.2 15-40.4 17.9-35.4 43.1-53.4 74.9-53.4s57 18 74.9 53.4c7.2 14.3 11.9 28.7 15 40.4h-141.2v32.5c0 10.3-8.4 18.7-18.7 18.7h-6.9v35c19.4 4 34.1 21.2 34.1 41.8z"/><path d="M508.322 393.129l-40.6-235.6h-42.3v8.5c0 233.8 68.4 303.1 74.4 308.8l5.8 3.5c2.8-9.3 4.6-21.9 5.5-38.2.9-15.2 0-31-2.8-47z"/></svg>