<svg xmlns="http://www.w3.org/2000/svg" viewBox="0 0 357.553 357.553"><path d="M244.626.183c-62.269 0-113.013 50.744-113.013 113.013 0 23.136 6.966 44.638 18.921 62.527l-2.064 2.064c-5.849 6.021-7.311 14.707-4.558 22.018l-21.072 21.072-2.494-2.494c-1.118-1.118-2.838-1.118-3.956 0L6.128 322.107c-8.171 8.171-8.171 21.158 0 29.329 3.956 3.956 9.289 5.935 14.621 5.935 5.332 0 10.751-1.978 14.621-5.935l103.725-110.261c1.118-1.118 1.118-2.838 0-3.956l-2.494-2.494 21.071-21.071c2.322.86 4.816 1.376 7.397 1.376 5.075 0 10.407-1.978 14.363-6.193l1.892-1.892c18.062 12.213 39.822 19.351 63.215 19.351 62.269 0 113.013-51.002 113.013-113.013.173-62.356-50.571-113.1-112.926-113.1zM31.586 347.221a15.105 15.105 0 01-21.416 0c-5.333-5.074-5.849-13.245-1.634-19.179l12.385 12.127c.602.602 1.118.86 1.978.86.602 0 1.376-.258 1.978-.86 1.118-1.118 1.118-2.838 0-3.956L12.406 324l106.047-99.682 2.494 2.494 9.891 9.891 2.494 2.494L31.586 347.221zM132.73 230.768l-5.935-5.935 20.04-20.04a18.9 18.9 0 001.72 1.978l2.236 2.236a18.9 18.9 0 001.978 1.72l-20.039 20.041zm42.832-25.889c-5.677 5.677-15.223 5.677-20.9 0l-2.236-2.236c-5.677-5.677-5.677-15.223 0-20.9l1.376-1.376a115.611 115.611 0 0023.05 23.222l-1.29 1.29zm69.064 15.482c-59.173 0-107.423-48.164-107.423-107.423S185.367 5.515 244.626 5.515s107.423 48.164 107.423 107.423-48.165 107.423-107.423 107.423z"/><path d="M244.626 22.201c-49.884 0-90.737 40.853-90.737 90.737s40.595 90.737 90.737 90.737 90.738-40.853 90.738-90.737c.085-49.884-40.768-90.737-90.738-90.737zm0 175.884c-46.788 0-85.147-38.359-85.147-85.147s38.015-85.146 85.147-85.146 85.147 38.359 85.147 85.147c0 46.787-38.36 85.146-85.147 85.146z"/><path d="M308.099 76.643c-13.847-23.652-39.219-37.757-66.57-36.639-1.72 0-2.838 1.118-2.838 2.838s1.118 2.838 2.838 2.838c25.372-1.118 48.766 11.869 61.495 33.801.602.86 1.72 1.376 2.494 1.376.602 0 1.118 0 1.376-.258 1.463-.86 2.065-2.58 1.205-3.956z"/></svg>